<svg width="25" height="24" xmlns="http://www.w3.org/2000/svg"><path d="M16.996 0c3.942 0 7.15 3.182 7.15 7.093v9.622c0 3.911-3.208 7.093-7.15 7.093h-9.7c-3.943 0-7.15-3.182-7.15-7.093V7.093C.146 3.182 3.353 0 7.296 0Zm0 2.395h-9.7c-2.616 0-4.736 2.103-4.736 4.698v9.622c0 2.595 2.12 4.698 4.735 4.698h9.7c2.616 0 4.736-2.103 4.736-4.698V7.093c0-2.595-2.12-4.698-4.735-4.698Zm-4.85 3.351c3.422 0 6.207 2.763 6.207 6.158 0 3.395-2.785 6.158-6.207 6.158-3.423 0-6.208-2.763-6.208-6.158 0-3.395 2.785-6.158 6.208-6.158Zm0 2.395c-2.095 0-3.793 1.685-3.793 3.763s1.698 3.763 3.793 3.763c2.094 0 3.792-1.685 3.792-3.763s-1.698-3.763-3.792-3.763Zm6.219-3.824c.821 0 1.487.66 1.487 1.476 0 .815-.666 1.475-1.487 1.475-.822 0-1.488-.66-1.488-1.475 0-.815.666-1.476 1.488-1.476Z" fill="#989898" fill-rule="nonzero"/></svg>