<svg width="25" height="24" xmlns="http://www.w3.org/2000/svg"><path d="M12.146 0c-6.627 0-12 5.33-12 11.904 0 4.874 2.955 9.062 7.183 10.903-.034-.831-.006-1.83.209-2.734l1.544-6.486s-.383-.76-.383-1.884c0-1.764 1.03-3.081 2.314-3.081 1.091 0 1.619.813 1.619 1.787 0 1.089-.7 2.717-1.06 4.225-.3 1.262.638 2.292 1.894 2.292 2.273 0 3.805-2.896 3.805-6.329 0-2.609-1.772-4.561-4.993-4.561-3.64 0-5.908 2.692-5.908 5.7 0 1.037.308 1.769.79 2.335.223.26.254.365.173.664-.057.219-.19.746-.244.955-.08.301-.326.41-.6.298-1.677-.68-2.458-2.5-2.458-4.548 0-3.381 2.875-7.436 8.576-7.436 4.581 0 7.597 3.289 7.597 6.819 0 4.67-2.617 8.158-6.475 8.158-1.296 0-2.514-.694-2.932-1.483 0 0-.696 2.742-.844 3.272-.254.918-.752 1.835-1.208 2.55 1.08.316 2.22.488 3.401.488 6.627 0 12-5.33 12-11.904S18.773 0 12.146 0" fill="#989898" fill-rule="evenodd"/></svg>